<mxfile host="Electron" modified="2024-03-10T16:29:30.988Z" agent="Mozilla/5.0 (Windows NT 10.0; Win64; x64) AppleWebKit/537.36 (KHTML, like Gecko) draw.io/24.0.4 Chrome/120.0.6099.109 Electron/28.1.0 Safari/537.36" etag="K5UiqWWUK1byfIMOQG41" version="24.0.4" type="device" pages="2">
  <diagram id="C5RBs43oDa-KdzZeNtuy" name="Engine&#39;s Components">
    <mxGraphModel dx="3915" dy="836" grid="1" gridSize="10" guides="1" tooltips="1" connect="1" arrows="1" fold="1" page="1" pageScale="1" pageWidth="827" pageHeight="1169" math="0" shadow="0">
      <root>
        <mxCell id="WIyWlLk6GJQsqaUBKTNV-0" />
        <mxCell id="WIyWlLk6GJQsqaUBKTNV-1" parent="WIyWlLk6GJQsqaUBKTNV-0" />
        <mxCell id="n2tDQeMmZcv5Y5ZX0DNq-8" value="" style="edgeStyle=orthogonalEdgeStyle;rounded=0;orthogonalLoop=1;jettySize=auto;html=1;exitX=0.5;exitY=1;exitDx=0;exitDy=0;entryX=0.5;entryY=0;entryDx=0;entryDy=0;" parent="WIyWlLk6GJQsqaUBKTNV-1" source="n2tDQeMmZcv5Y5ZX0DNq-6" target="n2tDQeMmZcv5Y5ZX0DNq-0" edge="1">
          <mxGeometry relative="1" as="geometry">
            <mxPoint x="-200" y="560" as="targetPoint" />
          </mxGeometry>
        </mxCell>
        <mxCell id="n2tDQeMmZcv5Y5ZX0DNq-18" style="edgeStyle=orthogonalEdgeStyle;rounded=0;orthogonalLoop=1;jettySize=auto;html=1;entryX=0.5;entryY=0;entryDx=0;entryDy=0;" parent="WIyWlLk6GJQsqaUBKTNV-1" source="n2tDQeMmZcv5Y5ZX0DNq-0" target="n2tDQeMmZcv5Y5ZX0DNq-12" edge="1">
          <mxGeometry relative="1" as="geometry" />
        </mxCell>
        <object label="Window System" id="n2tDQeMmZcv5Y5ZX0DNq-0">
          <mxCell style="html=1;dropTarget=0;whiteSpace=wrap;fillColor=#dae8fc;strokeColor=#6c8ebf;direction=west;" parent="WIyWlLk6GJQsqaUBKTNV-1" vertex="1">
            <mxGeometry x="-460" y="350" width="160" height="90" as="geometry" />
          </mxCell>
        </object>
        <mxCell id="n2tDQeMmZcv5Y5ZX0DNq-1" value="" style="shape=module;jettyWidth=8;jettyHeight=4;" parent="n2tDQeMmZcv5Y5ZX0DNq-0" vertex="1">
          <mxGeometry x="1" width="20" height="20" relative="1" as="geometry">
            <mxPoint x="-27" y="7" as="offset" />
          </mxGeometry>
        </mxCell>
        <object label="Application" id="n2tDQeMmZcv5Y5ZX0DNq-3">
          <mxCell style="html=1;dropTarget=0;whiteSpace=wrap;fillColor=#dae8fc;strokeColor=#6c8ebf;direction=west;" parent="WIyWlLk6GJQsqaUBKTNV-1" vertex="1">
            <mxGeometry x="-460" y="50" width="160" height="90" as="geometry" />
          </mxCell>
        </object>
        <mxCell id="n2tDQeMmZcv5Y5ZX0DNq-4" value="" style="shape=module;jettyWidth=8;jettyHeight=4;" parent="n2tDQeMmZcv5Y5ZX0DNq-3" vertex="1">
          <mxGeometry x="1" width="20" height="20" relative="1" as="geometry">
            <mxPoint x="-27" y="7" as="offset" />
          </mxGeometry>
        </mxCell>
        <object label="Game System" id="n2tDQeMmZcv5Y5ZX0DNq-6">
          <mxCell style="html=1;dropTarget=0;whiteSpace=wrap;fillColor=#dae8fc;strokeColor=#6c8ebf;direction=west;" parent="WIyWlLk6GJQsqaUBKTNV-1" vertex="1">
            <mxGeometry x="-530" y="530" width="160" height="90" as="geometry" />
          </mxCell>
        </object>
        <mxCell id="n2tDQeMmZcv5Y5ZX0DNq-7" value="" style="shape=module;jettyWidth=8;jettyHeight=4;" parent="n2tDQeMmZcv5Y5ZX0DNq-6" vertex="1">
          <mxGeometry x="1" width="20" height="20" relative="1" as="geometry">
            <mxPoint x="-27" y="7" as="offset" />
          </mxGeometry>
        </mxCell>
        <mxCell id="n2tDQeMmZcv5Y5ZX0DNq-16" style="edgeStyle=orthogonalEdgeStyle;rounded=0;orthogonalLoop=1;jettySize=auto;html=1;entryX=0.25;entryY=0;entryDx=0;entryDy=0;exitX=0.5;exitY=1;exitDx=0;exitDy=0;" parent="WIyWlLk6GJQsqaUBKTNV-1" source="n2tDQeMmZcv5Y5ZX0DNq-9" target="n2tDQeMmZcv5Y5ZX0DNq-0" edge="1">
          <mxGeometry relative="1" as="geometry" />
        </mxCell>
        <object label="DebugUI System" id="n2tDQeMmZcv5Y5ZX0DNq-9">
          <mxCell style="html=1;dropTarget=0;whiteSpace=wrap;fillColor=#dae8fc;strokeColor=#6c8ebf;direction=west;" parent="WIyWlLk6GJQsqaUBKTNV-1" vertex="1">
            <mxGeometry x="-350" y="530" width="160" height="90" as="geometry" />
          </mxCell>
        </object>
        <mxCell id="n2tDQeMmZcv5Y5ZX0DNq-10" value="" style="shape=module;jettyWidth=8;jettyHeight=4;" parent="n2tDQeMmZcv5Y5ZX0DNq-9" vertex="1">
          <mxGeometry x="1" width="20" height="20" relative="1" as="geometry">
            <mxPoint x="-27" y="7" as="offset" />
          </mxGeometry>
        </mxCell>
        <mxCell id="n2tDQeMmZcv5Y5ZX0DNq-17" style="edgeStyle=orthogonalEdgeStyle;rounded=0;orthogonalLoop=1;jettySize=auto;html=1;entryX=0.5;entryY=0;entryDx=0;entryDy=0;" parent="WIyWlLk6GJQsqaUBKTNV-1" source="n2tDQeMmZcv5Y5ZX0DNq-12" target="n2tDQeMmZcv5Y5ZX0DNq-3" edge="1">
          <mxGeometry relative="1" as="geometry" />
        </mxCell>
        <object label="Input System" id="n2tDQeMmZcv5Y5ZX0DNq-12">
          <mxCell style="html=1;dropTarget=0;whiteSpace=wrap;fillColor=#dae8fc;strokeColor=#6c8ebf;direction=west;" parent="WIyWlLk6GJQsqaUBKTNV-1" vertex="1">
            <mxGeometry x="-460" y="200" width="160" height="90" as="geometry" />
          </mxCell>
        </object>
        <mxCell id="n2tDQeMmZcv5Y5ZX0DNq-13" value="" style="shape=module;jettyWidth=8;jettyHeight=4;" parent="n2tDQeMmZcv5Y5ZX0DNq-12" vertex="1">
          <mxGeometry x="1" width="20" height="20" relative="1" as="geometry">
            <mxPoint x="-27" y="7" as="offset" />
          </mxGeometry>
        </mxCell>
        <mxCell id="n2tDQeMmZcv5Y5ZX0DNq-23" style="edgeStyle=orthogonalEdgeStyle;rounded=0;orthogonalLoop=1;jettySize=auto;html=1;entryX=0.5;entryY=0;entryDx=0;entryDy=0;exitX=0.5;exitY=1;exitDx=0;exitDy=0;" parent="WIyWlLk6GJQsqaUBKTNV-1" source="n2tDQeMmZcv5Y5ZX0DNq-19" target="n2tDQeMmZcv5Y5ZX0DNq-9" edge="1">
          <mxGeometry relative="1" as="geometry">
            <Array as="points">
              <mxPoint x="-360" y="700" />
              <mxPoint x="-270" y="700" />
            </Array>
          </mxGeometry>
        </mxCell>
        <mxCell id="n2tDQeMmZcv5Y5ZX0DNq-25" style="edgeStyle=orthogonalEdgeStyle;rounded=0;orthogonalLoop=1;jettySize=auto;html=1;entryX=0.5;entryY=0;entryDx=0;entryDy=0;" parent="WIyWlLk6GJQsqaUBKTNV-1" source="n2tDQeMmZcv5Y5ZX0DNq-19" target="n2tDQeMmZcv5Y5ZX0DNq-6" edge="1">
          <mxGeometry relative="1" as="geometry">
            <Array as="points">
              <mxPoint x="-360" y="700" />
              <mxPoint x="-450" y="700" />
            </Array>
          </mxGeometry>
        </mxCell>
        <object label="Editor System" id="n2tDQeMmZcv5Y5ZX0DNq-19">
          <mxCell style="html=1;dropTarget=0;whiteSpace=wrap;fillColor=#dae8fc;strokeColor=#6c8ebf;direction=west;" parent="WIyWlLk6GJQsqaUBKTNV-1" vertex="1">
            <mxGeometry x="-440" y="750" width="160" height="90" as="geometry" />
          </mxCell>
        </object>
        <mxCell id="n2tDQeMmZcv5Y5ZX0DNq-20" value="" style="shape=module;jettyWidth=8;jettyHeight=4;" parent="n2tDQeMmZcv5Y5ZX0DNq-19" vertex="1">
          <mxGeometry x="1" width="20" height="20" relative="1" as="geometry">
            <mxPoint x="-27" y="7" as="offset" />
          </mxGeometry>
        </mxCell>
        <mxCell id="n2tDQeMmZcv5Y5ZX0DNq-26" value="" style="edgeStyle=orthogonalEdgeStyle;rounded=0;orthogonalLoop=1;jettySize=auto;html=1;exitX=0.5;exitY=1;exitDx=0;exitDy=0;entryX=0.75;entryY=0;entryDx=0;entryDy=0;" parent="WIyWlLk6GJQsqaUBKTNV-1" source="n2tDQeMmZcv5Y5ZX0DNq-32" target="n2tDQeMmZcv5Y5ZX0DNq-28" edge="1">
          <mxGeometry relative="1" as="geometry">
            <mxPoint x="-1017" y="550" as="targetPoint" />
            <Array as="points">
              <mxPoint x="-1287" y="420" />
              <mxPoint x="-1147" y="420" />
            </Array>
          </mxGeometry>
        </mxCell>
        <mxCell id="n2tDQeMmZcv5Y5ZX0DNq-27" style="edgeStyle=orthogonalEdgeStyle;rounded=0;orthogonalLoop=1;jettySize=auto;html=1;entryX=0.25;entryY=0;entryDx=0;entryDy=0;" parent="WIyWlLk6GJQsqaUBKTNV-1" source="n2tDQeMmZcv5Y5ZX0DNq-28" target="n2tDQeMmZcv5Y5ZX0DNq-30" edge="1">
          <mxGeometry relative="1" as="geometry" />
        </mxCell>
        <object label="Window System" id="n2tDQeMmZcv5Y5ZX0DNq-28">
          <mxCell style="html=1;dropTarget=0;whiteSpace=wrap;fillColor=#d5e8d4;strokeColor=#82b366;direction=west;" parent="WIyWlLk6GJQsqaUBKTNV-1" vertex="1">
            <mxGeometry x="-1187" y="230" width="160" height="90" as="geometry" />
          </mxCell>
        </object>
        <mxCell id="n2tDQeMmZcv5Y5ZX0DNq-29" value="" style="shape=module;jettyWidth=8;jettyHeight=4;" parent="n2tDQeMmZcv5Y5ZX0DNq-28" vertex="1">
          <mxGeometry x="1" width="20" height="20" relative="1" as="geometry">
            <mxPoint x="-27" y="7" as="offset" />
          </mxGeometry>
        </mxCell>
        <mxCell id="n2tDQeMmZcv5Y5ZX0DNq-61" value="" style="edgeStyle=orthogonalEdgeStyle;rounded=0;orthogonalLoop=1;jettySize=auto;html=1;" parent="WIyWlLk6GJQsqaUBKTNV-1" source="n2tDQeMmZcv5Y5ZX0DNq-30" target="n2tDQeMmZcv5Y5ZX0DNq-59" edge="1">
          <mxGeometry relative="1" as="geometry" />
        </mxCell>
        <object label="Application" id="n2tDQeMmZcv5Y5ZX0DNq-30">
          <mxCell style="html=1;dropTarget=0;whiteSpace=wrap;fillColor=#d5e8d4;strokeColor=#82b366;direction=west;" parent="WIyWlLk6GJQsqaUBKTNV-1" vertex="1">
            <mxGeometry x="-1277" y="40" width="160" height="90" as="geometry" />
          </mxCell>
        </object>
        <mxCell id="n2tDQeMmZcv5Y5ZX0DNq-31" value="" style="shape=module;jettyWidth=8;jettyHeight=4;" parent="n2tDQeMmZcv5Y5ZX0DNq-30" vertex="1">
          <mxGeometry x="1" width="20" height="20" relative="1" as="geometry">
            <mxPoint x="-27" y="7" as="offset" />
          </mxGeometry>
        </mxCell>
        <mxCell id="n2tDQeMmZcv5Y5ZX0DNq-79" value="" style="edgeStyle=orthogonalEdgeStyle;rounded=0;orthogonalLoop=1;jettySize=auto;html=1;" parent="WIyWlLk6GJQsqaUBKTNV-1" source="n2tDQeMmZcv5Y5ZX0DNq-32" target="n2tDQeMmZcv5Y5ZX0DNq-77" edge="1">
          <mxGeometry relative="1" as="geometry" />
        </mxCell>
        <mxCell id="qY9GL0H-FPoxw-3-Z1kG-6" style="edgeStyle=orthogonalEdgeStyle;rounded=0;orthogonalLoop=1;jettySize=auto;html=1;entryX=0;entryY=0.5;entryDx=0;entryDy=0;" parent="WIyWlLk6GJQsqaUBKTNV-1" source="n2tDQeMmZcv5Y5ZX0DNq-32" target="qY9GL0H-FPoxw-3-Z1kG-3" edge="1">
          <mxGeometry relative="1" as="geometry" />
        </mxCell>
        <mxCell id="qY9GL0H-FPoxw-3-Z1kG-7" style="edgeStyle=orthogonalEdgeStyle;rounded=0;orthogonalLoop=1;jettySize=auto;html=1;entryX=0;entryY=0.5;entryDx=0;entryDy=0;" parent="WIyWlLk6GJQsqaUBKTNV-1" source="n2tDQeMmZcv5Y5ZX0DNq-32" target="qY9GL0H-FPoxw-3-Z1kG-0" edge="1">
          <mxGeometry relative="1" as="geometry">
            <Array as="points">
              <mxPoint x="-1788" y="805" />
              <mxPoint x="-1788" y="995" />
            </Array>
          </mxGeometry>
        </mxCell>
        <mxCell id="NBl-2C0k5fe7iJ5aYQFb-8" value="" style="edgeStyle=orthogonalEdgeStyle;rounded=0;orthogonalLoop=1;jettySize=auto;html=1;entryX=0;entryY=0.5;entryDx=0;entryDy=0;" parent="WIyWlLk6GJQsqaUBKTNV-1" source="n2tDQeMmZcv5Y5ZX0DNq-32" target="NBl-2C0k5fe7iJ5aYQFb-6" edge="1">
          <mxGeometry relative="1" as="geometry" />
        </mxCell>
        <mxCell id="s84-bYucqCqbzTvT57px-3" style="edgeStyle=orthogonalEdgeStyle;rounded=0;orthogonalLoop=1;jettySize=auto;html=1;entryX=0;entryY=0.5;entryDx=0;entryDy=0;" parent="WIyWlLk6GJQsqaUBKTNV-1" source="n2tDQeMmZcv5Y5ZX0DNq-32" target="s84-bYucqCqbzTvT57px-0" edge="1">
          <mxGeometry relative="1" as="geometry" />
        </mxCell>
        <object label="Common Game System" id="n2tDQeMmZcv5Y5ZX0DNq-32">
          <mxCell style="html=1;dropTarget=0;whiteSpace=wrap;fillColor=#d5e8d4;strokeColor=#82b366;direction=west;" parent="WIyWlLk6GJQsqaUBKTNV-1" vertex="1">
            <mxGeometry x="-1367" y="760" width="160" height="90" as="geometry" />
          </mxCell>
        </object>
        <mxCell id="n2tDQeMmZcv5Y5ZX0DNq-33" value="" style="shape=module;jettyWidth=8;jettyHeight=4;" parent="n2tDQeMmZcv5Y5ZX0DNq-32" vertex="1">
          <mxGeometry x="1" width="20" height="20" relative="1" as="geometry">
            <mxPoint x="-27" y="7" as="offset" />
          </mxGeometry>
        </mxCell>
        <mxCell id="n2tDQeMmZcv5Y5ZX0DNq-34" style="edgeStyle=orthogonalEdgeStyle;rounded=0;orthogonalLoop=1;jettySize=auto;html=1;entryX=0.5;entryY=0;entryDx=0;entryDy=0;exitX=0.5;exitY=1;exitDx=0;exitDy=0;" parent="WIyWlLk6GJQsqaUBKTNV-1" source="n2tDQeMmZcv5Y5ZX0DNq-74" target="n2tDQeMmZcv5Y5ZX0DNq-28" edge="1">
          <mxGeometry relative="1" as="geometry" />
        </mxCell>
        <mxCell id="n2tDQeMmZcv5Y5ZX0DNq-66" style="edgeStyle=orthogonalEdgeStyle;rounded=0;orthogonalLoop=1;jettySize=auto;html=1;entryX=0.25;entryY=0;entryDx=0;entryDy=0;exitX=0.5;exitY=1;exitDx=0;exitDy=0;" parent="WIyWlLk6GJQsqaUBKTNV-1" source="n2tDQeMmZcv5Y5ZX0DNq-74" target="n2tDQeMmZcv5Y5ZX0DNq-38" edge="1">
          <mxGeometry relative="1" as="geometry" />
        </mxCell>
        <mxCell id="n2tDQeMmZcv5Y5ZX0DNq-76" value="" style="edgeStyle=orthogonalEdgeStyle;rounded=0;orthogonalLoop=1;jettySize=auto;html=1;" parent="WIyWlLk6GJQsqaUBKTNV-1" source="n2tDQeMmZcv5Y5ZX0DNq-35" target="n2tDQeMmZcv5Y5ZX0DNq-74" edge="1">
          <mxGeometry relative="1" as="geometry" />
        </mxCell>
        <object label="Debug GUI System" id="n2tDQeMmZcv5Y5ZX0DNq-35">
          <mxCell style="html=1;dropTarget=0;whiteSpace=wrap;fillColor=#d5e8d4;strokeColor=#82b366;direction=west;" parent="WIyWlLk6GJQsqaUBKTNV-1" vertex="1">
            <mxGeometry x="-1187" y="760" width="160" height="90" as="geometry" />
          </mxCell>
        </object>
        <mxCell id="n2tDQeMmZcv5Y5ZX0DNq-36" value="" style="shape=module;jettyWidth=8;jettyHeight=4;" parent="n2tDQeMmZcv5Y5ZX0DNq-35" vertex="1">
          <mxGeometry x="1" width="20" height="20" relative="1" as="geometry">
            <mxPoint x="-27" y="7" as="offset" />
          </mxGeometry>
        </mxCell>
        <mxCell id="n2tDQeMmZcv5Y5ZX0DNq-37" style="edgeStyle=orthogonalEdgeStyle;rounded=0;orthogonalLoop=1;jettySize=auto;html=1;entryX=0.75;entryY=0;entryDx=0;entryDy=0;exitX=0.5;exitY=1;exitDx=0;exitDy=0;" parent="WIyWlLk6GJQsqaUBKTNV-1" source="n2tDQeMmZcv5Y5ZX0DNq-38" target="n2tDQeMmZcv5Y5ZX0DNq-30" edge="1">
          <mxGeometry relative="1" as="geometry" />
        </mxCell>
        <object label="Input System" id="n2tDQeMmZcv5Y5ZX0DNq-38">
          <mxCell style="html=1;dropTarget=0;whiteSpace=wrap;fillColor=#d5e8d4;strokeColor=#82b366;direction=west;" parent="WIyWlLk6GJQsqaUBKTNV-1" vertex="1">
            <mxGeometry x="-1367" y="230" width="160" height="90" as="geometry" />
          </mxCell>
        </object>
        <mxCell id="n2tDQeMmZcv5Y5ZX0DNq-39" value="" style="shape=module;jettyWidth=8;jettyHeight=4;" parent="n2tDQeMmZcv5Y5ZX0DNq-38" vertex="1">
          <mxGeometry x="1" width="20" height="20" relative="1" as="geometry">
            <mxPoint x="-27" y="7" as="offset" />
          </mxGeometry>
        </mxCell>
        <mxCell id="n2tDQeMmZcv5Y5ZX0DNq-40" style="edgeStyle=orthogonalEdgeStyle;rounded=0;orthogonalLoop=1;jettySize=auto;html=1;entryX=0.5;entryY=0;entryDx=0;entryDy=0;exitX=0.5;exitY=1;exitDx=0;exitDy=0;" parent="WIyWlLk6GJQsqaUBKTNV-1" source="n2tDQeMmZcv5Y5ZX0DNq-42" target="n2tDQeMmZcv5Y5ZX0DNq-35" edge="1">
          <mxGeometry relative="1" as="geometry">
            <Array as="points">
              <mxPoint x="-1197" y="930" />
              <mxPoint x="-1107" y="930" />
            </Array>
          </mxGeometry>
        </mxCell>
        <mxCell id="n2tDQeMmZcv5Y5ZX0DNq-41" style="edgeStyle=orthogonalEdgeStyle;rounded=0;orthogonalLoop=1;jettySize=auto;html=1;entryX=0.5;entryY=0;entryDx=0;entryDy=0;" parent="WIyWlLk6GJQsqaUBKTNV-1" source="n2tDQeMmZcv5Y5ZX0DNq-42" target="n2tDQeMmZcv5Y5ZX0DNq-32" edge="1">
          <mxGeometry relative="1" as="geometry">
            <Array as="points">
              <mxPoint x="-1197" y="930" />
              <mxPoint x="-1287" y="930" />
            </Array>
          </mxGeometry>
        </mxCell>
        <object label="Editor" id="n2tDQeMmZcv5Y5ZX0DNq-42">
          <mxCell style="html=1;dropTarget=0;whiteSpace=wrap;fillColor=#fff2cc;strokeColor=#d6b656;direction=west;" parent="WIyWlLk6GJQsqaUBKTNV-1" vertex="1">
            <mxGeometry x="-1277" y="980" width="160" height="90" as="geometry" />
          </mxCell>
        </object>
        <mxCell id="n2tDQeMmZcv5Y5ZX0DNq-43" value="" style="shape=module;jettyWidth=8;jettyHeight=4;" parent="n2tDQeMmZcv5Y5ZX0DNq-42" vertex="1">
          <mxGeometry x="1" width="20" height="20" relative="1" as="geometry">
            <mxPoint x="-27" y="7" as="offset" />
          </mxGeometry>
        </mxCell>
        <mxCell id="n2tDQeMmZcv5Y5ZX0DNq-44" value="Now" style="text;html=1;strokeColor=none;fillColor=none;align=center;verticalAlign=middle;whiteSpace=wrap;rounded=0;" parent="WIyWlLk6GJQsqaUBKTNV-1" vertex="1">
          <mxGeometry x="-420" width="60" height="30" as="geometry" />
        </mxCell>
        <mxCell id="n2tDQeMmZcv5Y5ZX0DNq-45" value="Will be" style="text;html=1;strokeColor=none;fillColor=none;align=center;verticalAlign=middle;whiteSpace=wrap;rounded=0;" parent="WIyWlLk6GJQsqaUBKTNV-1" vertex="1">
          <mxGeometry x="-1227" width="60" height="30" as="geometry" />
        </mxCell>
        <mxCell id="n2tDQeMmZcv5Y5ZX0DNq-51" value="" style="edgeStyle=orthogonalEdgeStyle;rounded=0;orthogonalLoop=1;jettySize=auto;html=1;" parent="WIyWlLk6GJQsqaUBKTNV-1" source="n2tDQeMmZcv5Y5ZX0DNq-46" target="n2tDQeMmZcv5Y5ZX0DNq-49" edge="1">
          <mxGeometry relative="1" as="geometry" />
        </mxCell>
        <mxCell id="n2tDQeMmZcv5Y5ZX0DNq-54" value="" style="edgeStyle=orthogonalEdgeStyle;rounded=0;orthogonalLoop=1;jettySize=auto;html=1;" parent="WIyWlLk6GJQsqaUBKTNV-1" source="n2tDQeMmZcv5Y5ZX0DNq-46" target="n2tDQeMmZcv5Y5ZX0DNq-52" edge="1">
          <mxGeometry relative="1" as="geometry" />
        </mxCell>
        <mxCell id="n2tDQeMmZcv5Y5ZX0DNq-58" value="" style="edgeStyle=orthogonalEdgeStyle;rounded=0;orthogonalLoop=1;jettySize=auto;html=1;" parent="WIyWlLk6GJQsqaUBKTNV-1" source="n2tDQeMmZcv5Y5ZX0DNq-46" target="n2tDQeMmZcv5Y5ZX0DNq-56" edge="1">
          <mxGeometry relative="1" as="geometry" />
        </mxCell>
        <mxCell id="NBl-2C0k5fe7iJ5aYQFb-0" style="edgeStyle=orthogonalEdgeStyle;rounded=0;orthogonalLoop=1;jettySize=auto;html=1;" parent="WIyWlLk6GJQsqaUBKTNV-1" source="n2tDQeMmZcv5Y5ZX0DNq-46" target="NBl-2C0k5fe7iJ5aYQFb-1" edge="1">
          <mxGeometry relative="1" as="geometry">
            <mxPoint x="-1770" y="610" as="targetPoint" />
          </mxGeometry>
        </mxCell>
        <mxCell id="NBl-2C0k5fe7iJ5aYQFb-5" value="" style="edgeStyle=orthogonalEdgeStyle;rounded=0;orthogonalLoop=1;jettySize=auto;html=1;" parent="WIyWlLk6GJQsqaUBKTNV-1" source="n2tDQeMmZcv5Y5ZX0DNq-46" target="NBl-2C0k5fe7iJ5aYQFb-3" edge="1">
          <mxGeometry relative="1" as="geometry">
            <mxPoint x="-1671" y="565" as="sourcePoint" />
          </mxGeometry>
        </mxCell>
        <object label="Resourse System" id="n2tDQeMmZcv5Y5ZX0DNq-46">
          <mxCell style="html=1;dropTarget=0;whiteSpace=wrap;fillColor=#d5e8d4;strokeColor=#82b366;direction=west;" parent="WIyWlLk6GJQsqaUBKTNV-1" vertex="1">
            <mxGeometry x="-2100" y="480" width="160" height="90" as="geometry" />
          </mxCell>
        </object>
        <mxCell id="n2tDQeMmZcv5Y5ZX0DNq-47" value="" style="shape=module;jettyWidth=8;jettyHeight=4;" parent="n2tDQeMmZcv5Y5ZX0DNq-46" vertex="1">
          <mxGeometry x="1" width="20" height="20" relative="1" as="geometry">
            <mxPoint x="-27" y="7" as="offset" />
          </mxGeometry>
        </mxCell>
        <object label="Shader Resourse" id="n2tDQeMmZcv5Y5ZX0DNq-49">
          <mxCell style="html=1;dropTarget=0;whiteSpace=wrap;fillColor=#dae8fc;strokeColor=#6c8ebf;direction=west;" parent="WIyWlLk6GJQsqaUBKTNV-1" vertex="1">
            <mxGeometry x="-2034" y="320" width="160" height="90" as="geometry" />
          </mxCell>
        </object>
        <mxCell id="n2tDQeMmZcv5Y5ZX0DNq-50" value="" style="shape=module;jettyWidth=8;jettyHeight=4;" parent="n2tDQeMmZcv5Y5ZX0DNq-49" vertex="1">
          <mxGeometry x="1" width="20" height="20" relative="1" as="geometry">
            <mxPoint x="-27" y="7" as="offset" />
          </mxGeometry>
        </mxCell>
        <object label="Sound Resourse" id="n2tDQeMmZcv5Y5ZX0DNq-52">
          <mxCell style="html=1;dropTarget=0;whiteSpace=wrap;fillColor=#dae8fc;strokeColor=#6c8ebf;direction=west;" parent="WIyWlLk6GJQsqaUBKTNV-1" vertex="1">
            <mxGeometry x="-1840" y="320" width="160" height="90" as="geometry" />
          </mxCell>
        </object>
        <mxCell id="n2tDQeMmZcv5Y5ZX0DNq-53" value="" style="shape=module;jettyWidth=8;jettyHeight=4;" parent="n2tDQeMmZcv5Y5ZX0DNq-52" vertex="1">
          <mxGeometry x="1" width="20" height="20" relative="1" as="geometry">
            <mxPoint x="-27" y="7" as="offset" />
          </mxGeometry>
        </mxCell>
        <object label="Animation Resourse" id="n2tDQeMmZcv5Y5ZX0DNq-56">
          <mxCell style="html=1;dropTarget=0;whiteSpace=wrap;fillColor=#dae8fc;strokeColor=#6c8ebf;direction=west;" parent="WIyWlLk6GJQsqaUBKTNV-1" vertex="1">
            <mxGeometry x="-1670" y="320" width="160" height="90" as="geometry" />
          </mxCell>
        </object>
        <mxCell id="n2tDQeMmZcv5Y5ZX0DNq-57" value="" style="shape=module;jettyWidth=8;jettyHeight=4;" parent="n2tDQeMmZcv5Y5ZX0DNq-56" vertex="1">
          <mxGeometry x="1" width="20" height="20" relative="1" as="geometry">
            <mxPoint x="-27" y="7" as="offset" />
          </mxGeometry>
        </mxCell>
        <mxCell id="n2tDQeMmZcv5Y5ZX0DNq-64" value="" style="edgeStyle=orthogonalEdgeStyle;rounded=0;orthogonalLoop=1;jettySize=auto;html=1;" parent="WIyWlLk6GJQsqaUBKTNV-1" source="n2tDQeMmZcv5Y5ZX0DNq-59" target="n2tDQeMmZcv5Y5ZX0DNq-62" edge="1">
          <mxGeometry relative="1" as="geometry" />
        </mxCell>
        <mxCell id="n2tDQeMmZcv5Y5ZX0DNq-88" style="edgeStyle=orthogonalEdgeStyle;rounded=0;orthogonalLoop=1;jettySize=auto;html=1;entryX=0;entryY=0.5;entryDx=0;entryDy=0;exitX=1;exitY=0.5;exitDx=0;exitDy=0;" parent="WIyWlLk6GJQsqaUBKTNV-1" source="n2tDQeMmZcv5Y5ZX0DNq-62" target="n2tDQeMmZcv5Y5ZX0DNq-85" edge="1">
          <mxGeometry relative="1" as="geometry" />
        </mxCell>
        <object label="Config Var System" id="n2tDQeMmZcv5Y5ZX0DNq-59">
          <mxCell style="html=1;dropTarget=0;whiteSpace=wrap;fillColor=#d5e8d4;strokeColor=#82b366;direction=west;" parent="WIyWlLk6GJQsqaUBKTNV-1" vertex="1">
            <mxGeometry x="-1681" y="40" width="160" height="90" as="geometry" />
          </mxCell>
        </object>
        <mxCell id="n2tDQeMmZcv5Y5ZX0DNq-60" value="" style="shape=module;jettyWidth=8;jettyHeight=4;" parent="n2tDQeMmZcv5Y5ZX0DNq-59" vertex="1">
          <mxGeometry x="1" width="20" height="20" relative="1" as="geometry">
            <mxPoint x="-27" y="7" as="offset" />
          </mxGeometry>
        </mxCell>
        <object label="Debug Var System" id="n2tDQeMmZcv5Y5ZX0DNq-62">
          <mxCell style="html=1;dropTarget=0;whiteSpace=wrap;fillColor=#d5e8d4;strokeColor=#82b366;direction=west;" parent="WIyWlLk6GJQsqaUBKTNV-1" vertex="1">
            <mxGeometry x="-1874" y="40" width="160" height="90" as="geometry" />
          </mxCell>
        </object>
        <mxCell id="n2tDQeMmZcv5Y5ZX0DNq-63" value="" style="shape=module;jettyWidth=8;jettyHeight=4;" parent="n2tDQeMmZcv5Y5ZX0DNq-62" vertex="1">
          <mxGeometry x="1" width="20" height="20" relative="1" as="geometry">
            <mxPoint x="-27" y="7" as="offset" />
          </mxGeometry>
        </mxCell>
        <mxCell id="n2tDQeMmZcv5Y5ZX0DNq-70" style="edgeStyle=orthogonalEdgeStyle;rounded=0;orthogonalLoop=1;jettySize=auto;html=1;exitX=0.5;exitY=1;exitDx=0;exitDy=0;entryX=0;entryY=0.5;entryDx=0;entryDy=0;" parent="WIyWlLk6GJQsqaUBKTNV-1" source="n2tDQeMmZcv5Y5ZX0DNq-67" target="n2tDQeMmZcv5Y5ZX0DNq-74" edge="1">
          <mxGeometry relative="1" as="geometry">
            <mxPoint x="-990" y="480" as="targetPoint" />
            <Array as="points">
              <mxPoint x="-907" y="485" />
            </Array>
          </mxGeometry>
        </mxCell>
        <object label="Game GUI System" id="n2tDQeMmZcv5Y5ZX0DNq-67">
          <mxCell style="html=1;dropTarget=0;whiteSpace=wrap;fillColor=#d5e8d4;strokeColor=#82b366;direction=west;" parent="WIyWlLk6GJQsqaUBKTNV-1" vertex="1">
            <mxGeometry x="-1010" y="760" width="160" height="90" as="geometry" />
          </mxCell>
        </object>
        <mxCell id="n2tDQeMmZcv5Y5ZX0DNq-68" value="" style="shape=module;jettyWidth=8;jettyHeight=4;" parent="n2tDQeMmZcv5Y5ZX0DNq-67" vertex="1">
          <mxGeometry x="1" width="20" height="20" relative="1" as="geometry">
            <mxPoint x="-27" y="7" as="offset" />
          </mxGeometry>
        </mxCell>
        <object label="Backend GUI System" id="n2tDQeMmZcv5Y5ZX0DNq-74">
          <mxCell style="html=1;dropTarget=0;whiteSpace=wrap;fillColor=#d5e8d4;strokeColor=#82b366;direction=west;" parent="WIyWlLk6GJQsqaUBKTNV-1" vertex="1">
            <mxGeometry x="-1187" y="440" width="160" height="90" as="geometry" />
          </mxCell>
        </object>
        <mxCell id="n2tDQeMmZcv5Y5ZX0DNq-75" value="" style="shape=module;jettyWidth=8;jettyHeight=4;" parent="n2tDQeMmZcv5Y5ZX0DNq-74" vertex="1">
          <mxGeometry x="1" width="20" height="20" relative="1" as="geometry">
            <mxPoint x="-27" y="7" as="offset" />
          </mxGeometry>
        </mxCell>
        <mxCell id="n2tDQeMmZcv5Y5ZX0DNq-80" style="edgeStyle=orthogonalEdgeStyle;rounded=0;orthogonalLoop=1;jettySize=auto;html=1;entryX=0.5;entryY=0;entryDx=0;entryDy=0;" parent="WIyWlLk6GJQsqaUBKTNV-1" source="n2tDQeMmZcv5Y5ZX0DNq-77" target="n2tDQeMmZcv5Y5ZX0DNq-38" edge="1">
          <mxGeometry relative="1" as="geometry" />
        </mxCell>
        <object label="Input Manager" id="n2tDQeMmZcv5Y5ZX0DNq-77">
          <mxCell style="html=1;dropTarget=0;whiteSpace=wrap;fillColor=#e1d5e7;strokeColor=#9673a6;direction=west;" parent="WIyWlLk6GJQsqaUBKTNV-1" vertex="1">
            <mxGeometry x="-1457" y="440" width="160" height="90" as="geometry" />
          </mxCell>
        </object>
        <mxCell id="n2tDQeMmZcv5Y5ZX0DNq-78" value="" style="shape=module;jettyWidth=8;jettyHeight=4;" parent="n2tDQeMmZcv5Y5ZX0DNq-77" vertex="1">
          <mxGeometry x="1" width="20" height="20" relative="1" as="geometry">
            <mxPoint x="-27" y="7" as="offset" />
          </mxGeometry>
        </mxCell>
        <mxCell id="n2tDQeMmZcv5Y5ZX0DNq-84" style="edgeStyle=orthogonalEdgeStyle;rounded=0;orthogonalLoop=1;jettySize=auto;html=1;entryX=0.5;entryY=0;entryDx=0;entryDy=0;" parent="WIyWlLk6GJQsqaUBKTNV-1" source="n2tDQeMmZcv5Y5ZX0DNq-81" target="n2tDQeMmZcv5Y5ZX0DNq-32" edge="1">
          <mxGeometry relative="1" as="geometry">
            <Array as="points">
              <mxPoint x="-1397" y="930" />
              <mxPoint x="-1287" y="930" />
            </Array>
          </mxGeometry>
        </mxCell>
        <object label="Game" id="n2tDQeMmZcv5Y5ZX0DNq-81">
          <mxCell style="html=1;dropTarget=0;whiteSpace=wrap;fillColor=#fff2cc;strokeColor=#d6b656;direction=west;" parent="WIyWlLk6GJQsqaUBKTNV-1" vertex="1">
            <mxGeometry x="-1477" y="980" width="160" height="90" as="geometry" />
          </mxCell>
        </object>
        <mxCell id="n2tDQeMmZcv5Y5ZX0DNq-82" value="" style="shape=module;jettyWidth=8;jettyHeight=4;" parent="n2tDQeMmZcv5Y5ZX0DNq-81" vertex="1">
          <mxGeometry x="1" width="20" height="20" relative="1" as="geometry">
            <mxPoint x="-27" y="7" as="offset" />
          </mxGeometry>
        </mxCell>
        <object label="Common" id="n2tDQeMmZcv5Y5ZX0DNq-85">
          <mxCell style="html=1;dropTarget=0;whiteSpace=wrap;fillColor=#d5e8d4;strokeColor=#82b366;direction=west;" parent="WIyWlLk6GJQsqaUBKTNV-1" vertex="1">
            <mxGeometry x="-2100" y="40" width="160" height="90" as="geometry" />
          </mxCell>
        </object>
        <mxCell id="n2tDQeMmZcv5Y5ZX0DNq-86" value="" style="shape=module;jettyWidth=8;jettyHeight=4;" parent="n2tDQeMmZcv5Y5ZX0DNq-85" vertex="1">
          <mxGeometry x="1" width="20" height="20" relative="1" as="geometry">
            <mxPoint x="-27" y="7" as="offset" />
          </mxGeometry>
        </mxCell>
        <mxCell id="n2tDQeMmZcv5Y5ZX0DNq-89" value="" style="endArrow=none;html=1;rounded=0;strokeWidth=6;strokeColor=#0DFF2D;" parent="WIyWlLk6GJQsqaUBKTNV-1" edge="1">
          <mxGeometry width="50" height="50" relative="1" as="geometry">
            <mxPoint x="-720" y="1160" as="sourcePoint" />
            <mxPoint x="-720" y="10" as="targetPoint" />
          </mxGeometry>
        </mxCell>
        <object label="Network System" id="qY9GL0H-FPoxw-3-Z1kG-0">
          <mxCell style="html=1;dropTarget=0;whiteSpace=wrap;fillColor=#d5e8d4;strokeColor=#82b366;direction=west;" parent="WIyWlLk6GJQsqaUBKTNV-1" vertex="1">
            <mxGeometry x="-2370" y="950" width="160" height="90" as="geometry" />
          </mxCell>
        </object>
        <mxCell id="qY9GL0H-FPoxw-3-Z1kG-1" value="" style="shape=module;jettyWidth=8;jettyHeight=4;" parent="qY9GL0H-FPoxw-3-Z1kG-0" vertex="1">
          <mxGeometry x="1" width="20" height="20" relative="1" as="geometry">
            <mxPoint x="-27" y="7" as="offset" />
          </mxGeometry>
        </mxCell>
        <object label="Phisics System" id="qY9GL0H-FPoxw-3-Z1kG-3">
          <mxCell style="html=1;dropTarget=0;whiteSpace=wrap;fillColor=#d5e8d4;strokeColor=#82b366;direction=west;" parent="WIyWlLk6GJQsqaUBKTNV-1" vertex="1">
            <mxGeometry x="-2370" y="1060" width="160" height="90" as="geometry" />
          </mxCell>
        </object>
        <mxCell id="qY9GL0H-FPoxw-3-Z1kG-4" value="" style="shape=module;jettyWidth=8;jettyHeight=4;" parent="qY9GL0H-FPoxw-3-Z1kG-3" vertex="1">
          <mxGeometry x="1" width="20" height="20" relative="1" as="geometry">
            <mxPoint x="-27" y="7" as="offset" />
          </mxGeometry>
        </mxCell>
        <object label="Texture Resourse" id="NBl-2C0k5fe7iJ5aYQFb-1">
          <mxCell style="html=1;dropTarget=0;whiteSpace=wrap;fillColor=#dae8fc;strokeColor=#6c8ebf;direction=west;" parent="WIyWlLk6GJQsqaUBKTNV-1" vertex="1">
            <mxGeometry x="-2200" y="320" width="160" height="90" as="geometry" />
          </mxCell>
        </object>
        <mxCell id="NBl-2C0k5fe7iJ5aYQFb-2" value="" style="shape=module;jettyWidth=8;jettyHeight=4;" parent="NBl-2C0k5fe7iJ5aYQFb-1" vertex="1">
          <mxGeometry x="1" width="20" height="20" relative="1" as="geometry">
            <mxPoint x="-27" y="7" as="offset" />
          </mxGeometry>
        </mxCell>
        <mxCell id="NBl-2C0k5fe7iJ5aYQFb-9" style="edgeStyle=orthogonalEdgeStyle;rounded=0;orthogonalLoop=1;jettySize=auto;html=1;exitX=0.25;exitY=0;exitDx=0;exitDy=0;entryX=1;entryY=0.75;entryDx=0;entryDy=0;" parent="WIyWlLk6GJQsqaUBKTNV-1" source="NBl-2C0k5fe7iJ5aYQFb-3" target="n2tDQeMmZcv5Y5ZX0DNq-46" edge="1">
          <mxGeometry relative="1" as="geometry" />
        </mxCell>
        <object label="Model Resourse" id="NBl-2C0k5fe7iJ5aYQFb-3">
          <mxCell style="html=1;dropTarget=0;whiteSpace=wrap;fillColor=#dae8fc;strokeColor=#6c8ebf;direction=west;" parent="WIyWlLk6GJQsqaUBKTNV-1" vertex="1">
            <mxGeometry x="-2370" y="320" width="160" height="90" as="geometry" />
          </mxCell>
        </object>
        <mxCell id="NBl-2C0k5fe7iJ5aYQFb-4" value="" style="shape=module;jettyWidth=8;jettyHeight=4;" parent="NBl-2C0k5fe7iJ5aYQFb-3" vertex="1">
          <mxGeometry x="1" width="20" height="20" relative="1" as="geometry">
            <mxPoint x="-27" y="7" as="offset" />
          </mxGeometry>
        </mxCell>
        <mxCell id="NBl-2C0k5fe7iJ5aYQFb-10" style="edgeStyle=orthogonalEdgeStyle;rounded=0;orthogonalLoop=1;jettySize=auto;html=1;" parent="WIyWlLk6GJQsqaUBKTNV-1" source="NBl-2C0k5fe7iJ5aYQFb-6" target="n2tDQeMmZcv5Y5ZX0DNq-46" edge="1">
          <mxGeometry relative="1" as="geometry" />
        </mxCell>
        <object label="Actor System" id="NBl-2C0k5fe7iJ5aYQFb-6">
          <mxCell style="html=1;dropTarget=0;whiteSpace=wrap;fillColor=#d5e8d4;strokeColor=#82b366;direction=west;" parent="WIyWlLk6GJQsqaUBKTNV-1" vertex="1">
            <mxGeometry x="-1760" y="650" width="160" height="90" as="geometry" />
          </mxCell>
        </object>
        <mxCell id="NBl-2C0k5fe7iJ5aYQFb-7" value="" style="shape=module;jettyWidth=8;jettyHeight=4;" parent="NBl-2C0k5fe7iJ5aYQFb-6" vertex="1">
          <mxGeometry x="1" width="20" height="20" relative="1" as="geometry">
            <mxPoint x="-27" y="7" as="offset" />
          </mxGeometry>
        </mxCell>
        <mxCell id="s84-bYucqCqbzTvT57px-2" style="edgeStyle=orthogonalEdgeStyle;rounded=0;orthogonalLoop=1;jettySize=auto;html=1;entryX=0.25;entryY=0;entryDx=0;entryDy=0;" parent="WIyWlLk6GJQsqaUBKTNV-1" source="s84-bYucqCqbzTvT57px-0" target="n2tDQeMmZcv5Y5ZX0DNq-46" edge="1">
          <mxGeometry relative="1" as="geometry" />
        </mxCell>
        <object label="Shader System" id="s84-bYucqCqbzTvT57px-0">
          <mxCell style="html=1;dropTarget=0;whiteSpace=wrap;fillColor=#d5e8d4;strokeColor=#82b366;direction=west;" parent="WIyWlLk6GJQsqaUBKTNV-1" vertex="1">
            <mxGeometry x="-1760" y="550" width="160" height="90" as="geometry" />
          </mxCell>
        </object>
        <mxCell id="s84-bYucqCqbzTvT57px-1" value="" style="shape=module;jettyWidth=8;jettyHeight=4;" parent="s84-bYucqCqbzTvT57px-0" vertex="1">
          <mxGeometry x="1" width="20" height="20" relative="1" as="geometry">
            <mxPoint x="-27" y="7" as="offset" />
          </mxGeometry>
        </mxCell>
      </root>
    </mxGraphModel>
  </diagram>
  <diagram id="XedO3lQcqlw38q0nyH4R" name="Resourse system">
    <mxGraphModel dx="1434" dy="836" grid="1" gridSize="10" guides="1" tooltips="1" connect="1" arrows="1" fold="1" page="1" pageScale="1" pageWidth="850" pageHeight="1100" math="0" shadow="0">
      <root>
        <mxCell id="0" />
        <mxCell id="1" parent="0" />
        <mxCell id="OY3f16UWlpUyQC0a9Vnv-5" value="res::ResourceSystem" style="swimlane;fontStyle=1;align=center;verticalAlign=top;childLayout=stackLayout;horizontal=1;startSize=26;horizontalStack=0;resizeParent=1;resizeParentMax=0;resizeLast=0;collapsible=1;marginBottom=0;whiteSpace=wrap;html=1;" parent="1" vertex="1">
          <mxGeometry x="140" y="610" width="350" height="86" as="geometry" />
        </mxCell>
        <mxCell id="OY3f16UWlpUyQC0a9Vnv-6" value="vector&amp;lt;std::shared_ptr&amp;lt;Resource&amp;gt;&amp;gt; loaded_resource" style="text;strokeColor=none;fillColor=none;align=left;verticalAlign=top;spacingLeft=4;spacingRight=4;overflow=hidden;rotatable=0;points=[[0,0.5],[1,0.5]];portConstraint=eastwest;whiteSpace=wrap;html=1;" parent="OY3f16UWlpUyQC0a9Vnv-5" vertex="1">
          <mxGeometry y="26" width="350" height="26" as="geometry" />
        </mxCell>
        <mxCell id="OY3f16UWlpUyQC0a9Vnv-7" value="" style="line;strokeWidth=1;fillColor=none;align=left;verticalAlign=middle;spacingTop=-1;spacingLeft=3;spacingRight=3;rotatable=0;labelPosition=right;points=[];portConstraint=eastwest;strokeColor=inherit;" parent="OY3f16UWlpUyQC0a9Vnv-5" vertex="1">
          <mxGeometry y="52" width="350" height="8" as="geometry" />
        </mxCell>
        <mxCell id="OY3f16UWlpUyQC0a9Vnv-8" value="require_resource(res::Tag tag) : std::shared_ptr&amp;lt;Resource&amp;gt;" style="text;strokeColor=none;fillColor=none;align=left;verticalAlign=top;spacingLeft=4;spacingRight=4;overflow=hidden;rotatable=0;points=[[0,0.5],[1,0.5]];portConstraint=eastwest;whiteSpace=wrap;html=1;" parent="OY3f16UWlpUyQC0a9Vnv-5" vertex="1">
          <mxGeometry y="60" width="350" height="26" as="geometry" />
        </mxCell>
        <mxCell id="OY3f16UWlpUyQC0a9Vnv-9" value="&lt;b&gt;res::Resource&lt;/b&gt;" style="swimlane;fontStyle=0;childLayout=stackLayout;horizontal=1;startSize=26;fillColor=none;horizontalStack=0;resizeParent=1;resizeParentMax=0;resizeLast=0;collapsible=1;marginBottom=0;whiteSpace=wrap;html=1;" parent="1" vertex="1">
          <mxGeometry x="330" y="110" width="140" height="52" as="geometry">
            <mxRectangle x="360" y="150" width="120" height="30" as="alternateBounds" />
          </mxGeometry>
        </mxCell>
        <mxCell id="OY3f16UWlpUyQC0a9Vnv-10" value="res::Tag tag_" style="text;strokeColor=none;fillColor=none;align=left;verticalAlign=top;spacingLeft=4;spacingRight=4;overflow=hidden;rotatable=0;points=[[0,0.5],[1,0.5]];portConstraint=eastwest;whiteSpace=wrap;html=1;" parent="OY3f16UWlpUyQC0a9Vnv-9" vertex="1">
          <mxGeometry y="26" width="140" height="26" as="geometry" />
        </mxCell>
        <mxCell id="OY3f16UWlpUyQC0a9Vnv-18" style="edgeStyle=orthogonalEdgeStyle;rounded=0;orthogonalLoop=1;jettySize=auto;html=1;" parent="1" source="OY3f16UWlpUyQC0a9Vnv-13" target="OY3f16UWlpUyQC0a9Vnv-9" edge="1">
          <mxGeometry relative="1" as="geometry">
            <Array as="points">
              <mxPoint x="600" y="180" />
              <mxPoint x="430" y="180" />
            </Array>
          </mxGeometry>
        </mxCell>
        <mxCell id="OY3f16UWlpUyQC0a9Vnv-13" value="res::Model" style="swimlane;fontStyle=1;align=center;verticalAlign=top;childLayout=stackLayout;horizontal=1;startSize=26;horizontalStack=0;resizeParent=1;resizeParentMax=0;resizeLast=0;collapsible=1;marginBottom=0;whiteSpace=wrap;html=1;" parent="1" vertex="1">
          <mxGeometry x="520" y="210" width="160" height="52" as="geometry" />
        </mxCell>
        <mxCell id="OY3f16UWlpUyQC0a9Vnv-14" value="vector&amp;lt;Mesh&amp;gt; meshes_" style="text;strokeColor=none;fillColor=none;align=left;verticalAlign=top;spacingLeft=4;spacingRight=4;overflow=hidden;rotatable=0;points=[[0,0.5],[1,0.5]];portConstraint=eastwest;whiteSpace=wrap;html=1;" parent="OY3f16UWlpUyQC0a9Vnv-13" vertex="1">
          <mxGeometry y="26" width="160" height="26" as="geometry" />
        </mxCell>
        <mxCell id="OY3f16UWlpUyQC0a9Vnv-24" value="res::Mesh" style="swimlane;fontStyle=1;align=center;verticalAlign=top;childLayout=stackLayout;horizontal=1;startSize=26;horizontalStack=0;resizeParent=1;resizeParentMax=0;resizeLast=0;collapsible=1;marginBottom=0;whiteSpace=wrap;html=1;" parent="1" vertex="1">
          <mxGeometry x="700" y="280" width="160" height="104" as="geometry" />
        </mxCell>
        <mxCell id="OY3f16UWlpUyQC0a9Vnv-25" value="vector&amp;lt;Vertex&amp;gt; vertexes_" style="text;strokeColor=none;fillColor=none;align=left;verticalAlign=top;spacingLeft=4;spacingRight=4;overflow=hidden;rotatable=0;points=[[0,0.5],[1,0.5]];portConstraint=eastwest;whiteSpace=wrap;html=1;" parent="OY3f16UWlpUyQC0a9Vnv-24" vertex="1">
          <mxGeometry y="26" width="160" height="26" as="geometry" />
        </mxCell>
        <mxCell id="OY3f16UWlpUyQC0a9Vnv-47" value="vector&amp;lt;int&amp;gt; indeces_" style="text;strokeColor=none;fillColor=none;align=left;verticalAlign=top;spacingLeft=4;spacingRight=4;overflow=hidden;rotatable=0;points=[[0,0.5],[1,0.5]];portConstraint=eastwest;whiteSpace=wrap;html=1;" parent="OY3f16UWlpUyQC0a9Vnv-24" vertex="1">
          <mxGeometry y="52" width="160" height="26" as="geometry" />
        </mxCell>
        <mxCell id="OY3f16UWlpUyQC0a9Vnv-48" value="vector&amp;lt;Texture&amp;gt; textures_" style="text;strokeColor=none;fillColor=none;align=left;verticalAlign=top;spacingLeft=4;spacingRight=4;overflow=hidden;rotatable=0;points=[[0,0.5],[1,0.5]];portConstraint=eastwest;whiteSpace=wrap;html=1;" parent="OY3f16UWlpUyQC0a9Vnv-24" vertex="1">
          <mxGeometry y="78" width="160" height="26" as="geometry" />
        </mxCell>
        <mxCell id="OY3f16UWlpUyQC0a9Vnv-28" value="&lt;b&gt;res::Tag&lt;/b&gt;" style="swimlane;fontStyle=0;childLayout=stackLayout;horizontal=1;startSize=26;fillColor=none;horizontalStack=0;resizeParent=1;resizeParentMax=0;resizeLast=0;collapsible=1;marginBottom=0;whiteSpace=wrap;html=1;" parent="1" vertex="1">
          <mxGeometry x="110" y="32" width="140" height="104" as="geometry" />
        </mxCell>
        <mxCell id="OY3f16UWlpUyQC0a9Vnv-29" value="string pref_" style="text;strokeColor=none;fillColor=none;align=left;verticalAlign=top;spacingLeft=4;spacingRight=4;overflow=hidden;rotatable=0;points=[[0,0.5],[1,0.5]];portConstraint=eastwest;whiteSpace=wrap;html=1;" parent="OY3f16UWlpUyQC0a9Vnv-28" vertex="1">
          <mxGeometry y="26" width="140" height="26" as="geometry" />
        </mxCell>
        <mxCell id="OY3f16UWlpUyQC0a9Vnv-30" value="string path_" style="text;strokeColor=none;fillColor=none;align=left;verticalAlign=top;spacingLeft=4;spacingRight=4;overflow=hidden;rotatable=0;points=[[0,0.5],[1,0.5]];portConstraint=eastwest;whiteSpace=wrap;html=1;" parent="OY3f16UWlpUyQC0a9Vnv-28" vertex="1">
          <mxGeometry y="52" width="140" height="26" as="geometry" />
        </mxCell>
        <mxCell id="OY3f16UWlpUyQC0a9Vnv-31" value="string res_name_" style="text;strokeColor=none;fillColor=none;align=left;verticalAlign=top;spacingLeft=4;spacingRight=4;overflow=hidden;rotatable=0;points=[[0,0.5],[1,0.5]];portConstraint=eastwest;whiteSpace=wrap;html=1;" parent="OY3f16UWlpUyQC0a9Vnv-28" vertex="1">
          <mxGeometry y="78" width="140" height="26" as="geometry" />
        </mxCell>
        <mxCell id="OY3f16UWlpUyQC0a9Vnv-32" style="edgeStyle=orthogonalEdgeStyle;rounded=0;orthogonalLoop=1;jettySize=auto;html=1;" parent="1" source="OY3f16UWlpUyQC0a9Vnv-14" target="OY3f16UWlpUyQC0a9Vnv-24" edge="1">
          <mxGeometry relative="1" as="geometry" />
        </mxCell>
        <mxCell id="OY3f16UWlpUyQC0a9Vnv-33" style="edgeStyle=orthogonalEdgeStyle;rounded=0;orthogonalLoop=1;jettySize=auto;html=1;" parent="1" source="OY3f16UWlpUyQC0a9Vnv-10" target="OY3f16UWlpUyQC0a9Vnv-28" edge="1">
          <mxGeometry relative="1" as="geometry" />
        </mxCell>
        <mxCell id="OY3f16UWlpUyQC0a9Vnv-38" value="&lt;b&gt;res::Mesh::Vertex&lt;/b&gt;" style="swimlane;fontStyle=0;childLayout=stackLayout;horizontal=1;startSize=26;fillColor=none;horizontalStack=0;resizeParent=1;resizeParentMax=0;resizeLast=0;collapsible=1;marginBottom=0;whiteSpace=wrap;html=1;" parent="1" vertex="1">
          <mxGeometry x="930" y="215" width="180" height="208" as="geometry" />
        </mxCell>
        <mxCell id="OY3f16UWlpUyQC0a9Vnv-39" value="glm::vec3 position_" style="text;strokeColor=none;fillColor=none;align=left;verticalAlign=top;spacingLeft=4;spacingRight=4;overflow=hidden;rotatable=0;points=[[0,0.5],[1,0.5]];portConstraint=eastwest;whiteSpace=wrap;html=1;" parent="OY3f16UWlpUyQC0a9Vnv-38" vertex="1">
          <mxGeometry y="26" width="180" height="26" as="geometry" />
        </mxCell>
        <mxCell id="OY3f16UWlpUyQC0a9Vnv-40" value="glm::vec3 normal_" style="text;strokeColor=none;fillColor=none;align=left;verticalAlign=top;spacingLeft=4;spacingRight=4;overflow=hidden;rotatable=0;points=[[0,0.5],[1,0.5]];portConstraint=eastwest;whiteSpace=wrap;html=1;" parent="OY3f16UWlpUyQC0a9Vnv-38" vertex="1">
          <mxGeometry y="52" width="180" height="26" as="geometry" />
        </mxCell>
        <mxCell id="OY3f16UWlpUyQC0a9Vnv-41" value="glm::vec3 texture_position_" style="text;strokeColor=none;fillColor=none;align=left;verticalAlign=top;spacingLeft=4;spacingRight=4;overflow=hidden;rotatable=0;points=[[0,0.5],[1,0.5]];portConstraint=eastwest;whiteSpace=wrap;html=1;" parent="OY3f16UWlpUyQC0a9Vnv-38" vertex="1">
          <mxGeometry y="78" width="180" height="26" as="geometry" />
        </mxCell>
        <mxCell id="OY3f16UWlpUyQC0a9Vnv-42" value="glm::vec3 tangent_" style="text;strokeColor=none;fillColor=none;align=left;verticalAlign=top;spacingLeft=4;spacingRight=4;overflow=hidden;rotatable=0;points=[[0,0.5],[1,0.5]];portConstraint=eastwest;whiteSpace=wrap;html=1;" parent="OY3f16UWlpUyQC0a9Vnv-38" vertex="1">
          <mxGeometry y="104" width="180" height="26" as="geometry" />
        </mxCell>
        <mxCell id="OY3f16UWlpUyQC0a9Vnv-43" value="glm::vec3 bitangent_" style="text;strokeColor=none;fillColor=none;align=left;verticalAlign=top;spacingLeft=4;spacingRight=4;overflow=hidden;rotatable=0;points=[[0,0.5],[1,0.5]];portConstraint=eastwest;whiteSpace=wrap;html=1;" parent="OY3f16UWlpUyQC0a9Vnv-38" vertex="1">
          <mxGeometry y="130" width="180" height="26" as="geometry" />
        </mxCell>
        <mxCell id="OY3f16UWlpUyQC0a9Vnv-44" value="int bones_[4]" style="text;strokeColor=none;fillColor=none;align=left;verticalAlign=top;spacingLeft=4;spacingRight=4;overflow=hidden;rotatable=0;points=[[0,0.5],[1,0.5]];portConstraint=eastwest;whiteSpace=wrap;html=1;" parent="OY3f16UWlpUyQC0a9Vnv-38" vertex="1">
          <mxGeometry y="156" width="180" height="26" as="geometry" />
        </mxCell>
        <mxCell id="OY3f16UWlpUyQC0a9Vnv-45" value="float bones_weight_[4]" style="text;strokeColor=none;fillColor=none;align=left;verticalAlign=top;spacingLeft=4;spacingRight=4;overflow=hidden;rotatable=0;points=[[0,0.5],[1,0.5]];portConstraint=eastwest;whiteSpace=wrap;html=1;" parent="OY3f16UWlpUyQC0a9Vnv-38" vertex="1">
          <mxGeometry y="182" width="180" height="26" as="geometry" />
        </mxCell>
        <mxCell id="OY3f16UWlpUyQC0a9Vnv-46" style="edgeStyle=orthogonalEdgeStyle;rounded=0;orthogonalLoop=1;jettySize=auto;html=1;" parent="1" source="OY3f16UWlpUyQC0a9Vnv-25" target="OY3f16UWlpUyQC0a9Vnv-38" edge="1">
          <mxGeometry relative="1" as="geometry" />
        </mxCell>
        <mxCell id="OY3f16UWlpUyQC0a9Vnv-53" style="edgeStyle=orthogonalEdgeStyle;rounded=0;orthogonalLoop=1;jettySize=auto;html=1;" parent="1" source="OY3f16UWlpUyQC0a9Vnv-49" target="OY3f16UWlpUyQC0a9Vnv-9" edge="1">
          <mxGeometry relative="1" as="geometry">
            <Array as="points">
              <mxPoint x="400" y="240" />
              <mxPoint x="425" y="240" />
            </Array>
          </mxGeometry>
        </mxCell>
        <mxCell id="OY3f16UWlpUyQC0a9Vnv-49" value="&lt;b&gt;res::Texture&lt;/b&gt;" style="swimlane;fontStyle=0;childLayout=stackLayout;horizontal=1;startSize=26;fillColor=none;horizontalStack=0;resizeParent=1;resizeParentMax=0;resizeLast=0;collapsible=1;marginBottom=0;whiteSpace=wrap;html=1;" parent="1" vertex="1">
          <mxGeometry x="285" y="280" width="140" height="130" as="geometry" />
        </mxCell>
        <mxCell id="mkWN7BHOA0dlGqiqIkgK-1" value="usigned char* data_" style="text;strokeColor=none;fillColor=none;align=left;verticalAlign=top;spacingLeft=4;spacingRight=4;overflow=hidden;rotatable=0;points=[[0,0.5],[1,0.5]];portConstraint=eastwest;whiteSpace=wrap;html=1;" parent="OY3f16UWlpUyQC0a9Vnv-49" vertex="1">
          <mxGeometry y="26" width="140" height="26" as="geometry" />
        </mxCell>
        <mxCell id="mkWN7BHOA0dlGqiqIkgK-4" value="int channels_" style="text;strokeColor=none;fillColor=none;align=left;verticalAlign=top;spacingLeft=4;spacingRight=4;overflow=hidden;rotatable=0;points=[[0,0.5],[1,0.5]];portConstraint=eastwest;whiteSpace=wrap;html=1;" parent="OY3f16UWlpUyQC0a9Vnv-49" vertex="1">
          <mxGeometry y="52" width="140" height="26" as="geometry" />
        </mxCell>
        <mxCell id="mkWN7BHOA0dlGqiqIkgK-3" value="int height_" style="text;strokeColor=none;fillColor=none;align=left;verticalAlign=top;spacingLeft=4;spacingRight=4;overflow=hidden;rotatable=0;points=[[0,0.5],[1,0.5]];portConstraint=eastwest;whiteSpace=wrap;html=1;" parent="OY3f16UWlpUyQC0a9Vnv-49" vertex="1">
          <mxGeometry y="78" width="140" height="26" as="geometry" />
        </mxCell>
        <mxCell id="mkWN7BHOA0dlGqiqIkgK-2" value="int width_" style="text;strokeColor=none;fillColor=none;align=left;verticalAlign=top;spacingLeft=4;spacingRight=4;overflow=hidden;rotatable=0;points=[[0,0.5],[1,0.5]];portConstraint=eastwest;whiteSpace=wrap;html=1;" parent="OY3f16UWlpUyQC0a9Vnv-49" vertex="1">
          <mxGeometry y="104" width="140" height="26" as="geometry" />
        </mxCell>
        <mxCell id="OY3f16UWlpUyQC0a9Vnv-54" style="edgeStyle=orthogonalEdgeStyle;rounded=0;orthogonalLoop=1;jettySize=auto;html=1;" parent="1" source="OY3f16UWlpUyQC0a9Vnv-48" target="OY3f16UWlpUyQC0a9Vnv-49" edge="1">
          <mxGeometry relative="1" as="geometry">
            <Array as="points">
              <mxPoint x="680" y="371" />
              <mxPoint x="680" y="350" />
            </Array>
          </mxGeometry>
        </mxCell>
        <mxCell id="mkWN7BHOA0dlGqiqIkgK-9" style="edgeStyle=orthogonalEdgeStyle;rounded=0;orthogonalLoop=1;jettySize=auto;html=1;exitX=0.5;exitY=0;exitDx=0;exitDy=0;" parent="1" source="mkWN7BHOA0dlGqiqIkgK-5" target="OY3f16UWlpUyQC0a9Vnv-9" edge="1">
          <mxGeometry relative="1" as="geometry" />
        </mxCell>
        <mxCell id="mkWN7BHOA0dlGqiqIkgK-5" value="res::Shader" style="swimlane;fontStyle=1;align=center;verticalAlign=top;childLayout=stackLayout;horizontal=1;startSize=26;horizontalStack=0;resizeParent=1;resizeParentMax=0;resizeLast=0;collapsible=1;marginBottom=0;whiteSpace=wrap;html=1;" parent="1" vertex="1">
          <mxGeometry x="70" y="280" width="160" height="86" as="geometry" />
        </mxCell>
        <mxCell id="mkWN7BHOA0dlGqiqIkgK-6" value="string body_" style="text;strokeColor=none;fillColor=none;align=left;verticalAlign=top;spacingLeft=4;spacingRight=4;overflow=hidden;rotatable=0;points=[[0,0.5],[1,0.5]];portConstraint=eastwest;whiteSpace=wrap;html=1;" parent="mkWN7BHOA0dlGqiqIkgK-5" vertex="1">
          <mxGeometry y="26" width="160" height="26" as="geometry" />
        </mxCell>
        <mxCell id="mkWN7BHOA0dlGqiqIkgK-7" value="" style="line;strokeWidth=1;fillColor=none;align=left;verticalAlign=middle;spacingTop=-1;spacingLeft=3;spacingRight=3;rotatable=0;labelPosition=right;points=[];portConstraint=eastwest;strokeColor=inherit;" parent="mkWN7BHOA0dlGqiqIkgK-5" vertex="1">
          <mxGeometry y="52" width="160" height="8" as="geometry" />
        </mxCell>
        <mxCell id="mkWN7BHOA0dlGqiqIkgK-8" value="+ method(type): type" style="text;strokeColor=none;fillColor=none;align=left;verticalAlign=top;spacingLeft=4;spacingRight=4;overflow=hidden;rotatable=0;points=[[0,0.5],[1,0.5]];portConstraint=eastwest;whiteSpace=wrap;html=1;" parent="mkWN7BHOA0dlGqiqIkgK-5" vertex="1">
          <mxGeometry y="60" width="160" height="26" as="geometry" />
        </mxCell>
        <mxCell id="mkWN7BHOA0dlGqiqIkgK-10" value="Use" style="endArrow=open;endSize=12;dashed=1;html=1;rounded=0;" parent="1" source="OY3f16UWlpUyQC0a9Vnv-5" target="OY3f16UWlpUyQC0a9Vnv-49" edge="1">
          <mxGeometry width="160" relative="1" as="geometry">
            <mxPoint x="273.4663803680981" y="618" as="sourcePoint" />
            <mxPoint x="230.00012269938662" y="400" as="targetPoint" />
            <mxPoint as="offset" />
          </mxGeometry>
        </mxCell>
        <mxCell id="mkWN7BHOA0dlGqiqIkgK-11" value="Use" style="endArrow=open;endSize=12;dashed=1;html=1;rounded=0;" parent="1" source="OY3f16UWlpUyQC0a9Vnv-5" target="OY3f16UWlpUyQC0a9Vnv-13" edge="1">
          <mxGeometry width="160" relative="1" as="geometry">
            <mxPoint x="389" y="610" as="sourcePoint" />
            <mxPoint x="359" y="402" as="targetPoint" />
            <mxPoint as="offset" />
          </mxGeometry>
        </mxCell>
        <mxCell id="mkWN7BHOA0dlGqiqIkgK-12" value="Use" style="endArrow=open;endSize=12;dashed=1;html=1;rounded=0;" parent="1" source="OY3f16UWlpUyQC0a9Vnv-5" target="mkWN7BHOA0dlGqiqIkgK-5" edge="1">
          <mxGeometry width="160" relative="1" as="geometry">
            <mxPoint x="399" y="620" as="sourcePoint" />
            <mxPoint x="369" y="412" as="targetPoint" />
            <mxPoint as="offset" />
          </mxGeometry>
        </mxCell>
        <mxCell id="Vl5GAIvOdb6Fi2ls855T-1" value="res::RelativeTag" style="swimlane;fontStyle=1;align=center;verticalAlign=top;childLayout=stackLayout;horizontal=1;startSize=26;horizontalStack=0;resizeParent=1;resizeParentMax=0;resizeLast=0;collapsible=1;marginBottom=0;whiteSpace=wrap;html=1;" parent="1" vertex="1">
          <mxGeometry x="330" y="10" width="160" height="52" as="geometry" />
        </mxCell>
        <mxCell id="Vl5GAIvOdb6Fi2ls855T-2" value="vector&amp;lt;res::Tag&amp;gt;" style="text;strokeColor=none;fillColor=none;align=left;verticalAlign=top;spacingLeft=4;spacingRight=4;overflow=hidden;rotatable=0;points=[[0,0.5],[1,0.5]];portConstraint=eastwest;whiteSpace=wrap;html=1;" parent="Vl5GAIvOdb6Fi2ls855T-1" vertex="1">
          <mxGeometry y="26" width="160" height="26" as="geometry" />
        </mxCell>
        <mxCell id="Vl5GAIvOdb6Fi2ls855T-5" style="edgeStyle=orthogonalEdgeStyle;rounded=0;orthogonalLoop=1;jettySize=auto;html=1;" parent="1" source="Vl5GAIvOdb6Fi2ls855T-2" target="OY3f16UWlpUyQC0a9Vnv-28" edge="1">
          <mxGeometry relative="1" as="geometry" />
        </mxCell>
      </root>
    </mxGraphModel>
  </diagram>
</mxfile>
